<svg width="1024" height="1024" xmlns="http://www.w3.org/2000/svg" p-id="13998" version="1.1" class="icon" t="1722395047628">
 <g>
  <title>Layer 1</title>
  <g stroke="null" fill="#56aaff" id="svg_58">
   <path id="svg_1" data-spm-anchor-id="a313x.search_index.0.i39.375e3a81B5PMW9" p-id="13999" fill="#005fbf" d="m0.33333,472.24622m38.08711,0l947.82578,0q38.08711,0 38.08711,38.08711l0,0.02844q0,38.08712 -38.08711,38.08712l-947.82578,0q-38.08711,0 -38.08711,-38.08712l0,-0.02844q0,-38.08711 38.08711,-38.08711z"/>
   <path id="svg_2" data-spm-anchor-id="a313x.search_index.0.i41.375e3a81B5PMW9" p-id="14000" fill="#005fbf" d="m550.44889,-1.66667m0,38.08711l0,947.82578q0,38.08711 -38.08712,38.08711l-0.02844,0q-38.08711,0 -38.08711,-38.08711l0,-947.82578q0,-38.08711 38.08711,-38.08711l0.02844,0q38.08711,0 38.08712,38.08711z"/>
   <path id="svg_3" data-spm-anchor-id="a313x.search_index.0.i33.375e3a81B5PMW9" p-id="14001" fill="#005fbf" d="m177.22542,118.49455m26.93166,26.93165l670.21403,670.21404q26.93166,26.93165 0,53.86331l-0.02011,0.02011q-26.93166,26.93165 -53.86331,0l-670.21404,-670.21404q-26.93165,-26.93165 0,-53.86331l0.02012,-0.02011q26.93165,-26.93165 53.86331,0z"/>
   <path id="svg_4" data-spm-anchor-id="a313x.search_index.0.i31.375e3a81B5PMW9" p-id="14002" fill="#005fbf" d="m901.32145,175.20547m-26.93165,26.93166l-670.21403,670.21403q-26.93166,26.93166 -53.86331,0l-0.02012,-0.02011q-26.93165,-26.93165 0,-53.86331l670.21404,-670.21403q26.93165,-26.93166 53.86331,0l0.02011,0.02011q26.93165,26.93166 0,53.86331z"/>
   <path id="svg_5" data-spm-anchor-id="a313x.search_index.0.i38.375e3a81B5PMW9" p-id="14003" fill="#005fbf" d="m186.04848,612.73604m19.91638,-7.64519l597.49148,-229.35548q19.91638,-7.64519 27.56156,12.2712l0,0q7.64519,19.91638 -12.2712,27.56156l-597.49147,229.35549q-19.91638,7.64518 -27.56157,-12.2712l0,0q-7.64518,-19.91638 12.2712,-27.56157z"/>
   <path id="svg_6" data-spm-anchor-id="a313x.search_index.0.i36.375e3a81B5PMW9" p-id="14004" fill="#005fbf" d="m823.34592,652.59627m-19.91638,-7.64519l-597.49147,-229.35548q-19.91639,-7.64519 -12.2712,-27.56157l0,0q7.64518,-19.91638 27.56156,-12.2712l597.49147,229.35549q19.91639,7.64518 12.2712,27.56156l0,0q-7.64518,19.91639 -27.56156,12.2712z"/>
   <path stroke="null" id="svg_7" data-spm-anchor-id="a313x.search_index.0.i37.375e3a81B5PMW9" p-id="14005" fill="#005fbf" d="m632.76662,839.36325m-8.48113,-19.90891l-254.43366,-597.26746q-8.48112,-19.90891 12.48931,-27.96072l0,0q20.97044,-8.05181 29.45156,11.85711l254.43366,597.26745q8.48112,19.90892 -12.48931,27.96073l0,0q-20.97044,8.05181 -29.45156,-11.85711z"/>
   <path id="svg_8" data-spm-anchor-id="a313x.search_index.0.i35.375e3a81B5PMW9" p-id="14006" fill="#005fbf" d="m364.71055,818.84729m7.99161,-19.77993l239.74822,-593.39766q7.99161,-19.77992 27.77153,-11.78832l0.02637,0.01066q19.77992,7.9916 11.78832,27.77153l-239.74822,593.39766q-7.99161,19.77993 -27.77153,11.78832l-0.02637,-0.01066q-19.77993,-7.9916 -11.78832,-27.77153z"/>
   <path stroke="null" id="svg_11" d="m444.06312,491.02899l18.38268,-30.84293l31.8374,-17.80848l36.76536,0l31.8374,17.80848l18.38267,30.84293l0,35.61696l-18.38267,30.84293l-31.8374,17.80847l-36.76536,0l-31.8374,-17.80847l-18.38268,-30.84293l0,-35.61696z" fill="#005fbf"/>
  </g>
  <g transform="rotate(-2.79668 512.667 510.667)" stroke="null" id="svg_57">
   <path stroke="null" id="svg_48" data-spm-anchor-id="a313x.search_index.0.i39.375e3a81B5PMW9" p-id="13999" fill="#cc54d1" d="m1.33337,472.72831m38.03752,0l946.59161,0q38.03752,0 38.03752,37.93833l0,0.02833q0,37.93834 -38.03752,37.93834l-946.59161,0q-38.03752,0 -38.03752,-37.93834l0,-0.02833q0,-37.93833 38.03752,-37.93833z"/>
   <path stroke="null" id="svg_49" data-spm-anchor-id="a313x.search_index.0.i41.375e3a81B5PMW9" p-id="14000" fill="#4eaffa" d="m550.73262,0.66662m0,37.93833l0,944.12339q0,37.93833 -38.03753,37.93833l-0.0284,0q-38.03752,0 -38.03752,-37.93833l0,-944.12339q0,-37.93833 38.03752,-37.93833l0.0284,0q38.03752,0 38.03753,37.93833z"/>
   <path stroke="null" id="svg_50" data-spm-anchor-id="a313x.search_index.0.i33.375e3a81B5PMW9" p-id="14001" fill="#eaa3d2" d="m177.99513,120.35846m26.89659,26.82645l669.34134,667.59606q26.89659,26.82645 0,53.65291l-0.02008,0.02003q-26.89659,26.82645 -53.79317,0l-669.34135,-667.59606q-26.89658,-26.82645 0,-53.65291l0.02009,-0.02003q26.89658,-26.82645 53.79317,0z"/>
   <path stroke="null" id="svg_51" data-spm-anchor-id="a313x.search_index.0.i31.375e3a81B5PMW9" p-id="14002" fill="#b74f69" d="m901.14831,176.84786m-26.89658,26.82646l-669.34134,667.59605q-26.89659,26.82646 -53.79317,0l-0.02009,-0.02003q-26.89658,-26.82645 0,-53.65291l669.34135,-667.59605q26.89658,-26.82646 53.79317,0l0.02008,0.02003q26.89658,26.82646 0,53.65291z"/>
   <path stroke="null" id="svg_52" data-spm-anchor-id="a313x.search_index.0.i38.375e3a81B5PMW9" p-id="14003" fill="#f7da66" d="m186.8067,612.66935m19.89045,-7.61533l596.71348,-228.45957q19.89045,-7.61533 27.52567,12.22327l0,0q7.63524,19.83858 -12.25522,27.4539l-596.71347,228.45958q-19.89045,7.61532 -27.52568,-12.22327l0,0q-7.63523,-19.83858 12.25522,-27.45391z"/>
   <path stroke="null" id="svg_53" data-spm-anchor-id="a313x.search_index.0.i36.375e3a81B5PMW9" p-id="14004" fill="#00d1a8" d="m823.27431,652.37388m-19.89045,-7.61533l-596.71347,-228.45957q-19.89046,-7.61533 -12.25522,-27.45391l0,0q7.63523,-19.83858 27.52567,-12.22327l596.71347,228.45958q19.89046,7.61532 12.25522,27.4539l0,0q-7.63523,19.83859 -27.52567,12.22327z"/>
   <path stroke="null" id="svg_54" data-spm-anchor-id="a313x.search_index.0.i37.375e3a81B5PMW9" p-id="14005" fill="#3f8b9f" d="m632.94316,838.41131m-8.47009,-19.83115l-254.10235,-594.93442q-8.47008,-19.83114 12.47305,-27.8515l0,0q20.94313,-8.02036 29.41321,11.81078l254.10236,594.93442q8.47008,19.83115 -12.47305,27.85151l0,0q-20.94314,8.02036 -29.41322,-11.81079z"/>
   <path stroke="null" id="svg_55" data-spm-anchor-id="a313x.search_index.0.i35.375e3a81B5PMW9" p-id="14006" fill="#ff5664" d="m365.23613,817.97549m7.9812,-19.70267l239.43604,-591.07974q7.9812,-19.70266 27.73537,-11.74227l0.02634,0.01062q19.75416,7.96038 11.77297,27.66305l-239.43604,591.07974q-7.9812,19.70267 -27.73537,11.74227l-0.02634,-0.01062q-19.75417,-7.96038 -11.77297,-27.66305z"/>
   <path stroke="null" id="svg_56" d="m444.48538,491.43771l18.35874,-30.72245l31.79593,-17.73891l36.7175,0l31.79593,17.73891l18.35874,30.72245l0,35.47783l-18.35874,30.72245l-31.79593,17.73891l-36.7175,0l-31.79593,-17.73891l-18.35874,-30.72245l0,-35.47783z" fill="#00ffff"/>
  </g>
 </g>

</svg>