<?xml version="1.0" standalone="no"?><!DOCTYPE svg PUBLIC "-//W3C//DTD SVG 1.1//EN" "http://www.w3.org/Graphics/SVG/1.1/DTD/svg11.dtd"><svg t="1722395047628" class="icon" viewBox="0 0 1024 1024" version="1.1" xmlns="http://www.w3.org/2000/svg" p-id="13998" xmlns:xlink="http://www.w3.org/1999/xlink" width="32" height="32"><path d="M0 473.912889m38.087111 0l947.825778 0q38.087111 0 38.087111 38.087111l0 0.028444q0 38.087111-38.087111 38.087112l-947.825778 0q-38.087111 0-38.087111-38.087112l0-0.028444q0-38.087111 38.087111-38.087111Z" fill="#00e6f6" p-id="13999" data-spm-anchor-id="a313x.search_index.0.i39.375e3a81B5PMW9" class=""></path><path d="M550.115556 0m0 38.087111l0 947.825778q0 38.087111-38.087112 38.087111l-0.028444 0q-38.087111 0-38.087111-38.087111l0-947.825778q0-38.087111 38.087111-38.087111l0.028444 0q38.087111 0 38.087112 38.087111Z" fill="#19fa28" p-id="14000" data-spm-anchor-id="a313x.search_index.0.i41.375e3a81B5PMW9" class=""></path><path d="M176.892092 123.018357m26.931655 26.931655l670.214034 670.214035q26.931655 26.931655 0 53.863309l-0.020113 0.020113q-26.931655 26.931655-53.863309 0l-670.214035-670.214035q-26.931655-26.931655 0-53.863309l0.020114-0.020113q26.931655-26.931655 53.863309 0Z" fill="#f8f005" p-id="14001" data-spm-anchor-id="a313x.search_index.0.i33.375e3a81B5PMW9" class=""></path><path d="M900.988124 176.872145m-26.931655 26.931654l-670.214034 670.214035q-26.931655 26.931655-53.863309 0l-0.020114-0.020113q-26.931655-26.931655 0-53.863309l670.214035-670.214035q26.931655-26.931655 53.863309 0l0.020113 0.020113q26.931655 26.931655 0 53.863309Z" fill="#ff013c" p-id="14002" data-spm-anchor-id="a313x.search_index.0.i31.375e3a81B5PMW9" class=""></path><path d="M185.715152 614.402708m19.916382-7.645183l597.491473-229.355487q19.916382-7.645183 27.561566 12.271199l0 0q7.645183 19.916382-12.2712 27.561566l-597.491473 229.355487q-19.916382 7.645183-27.561565-12.271199l0 0q-7.645183-19.916382 12.271199-27.561566Z" fill="#19fa28" p-id="14003" data-spm-anchor-id="a313x.search_index.0.i38.375e3a81B5PMW9" class=""></path><path d="M823.012591 654.262937m-19.916382-7.645183l-597.491473-229.355487q-19.916382-7.645183-12.2712-27.561566l0 0q7.645183-19.916382 27.561566-12.271199l597.491473 229.355487q19.916382 7.645183 12.271199 27.561566l0 0q-7.645183 19.916382-27.561565 12.271199Z" fill="#ff013c" p-id="14004" data-spm-anchor-id="a313x.search_index.0.i36.375e3a81B5PMW9" class=""></path><path d="M617.333385 836.744189m-7.998511-19.777132l-239.955341-593.313943q-7.998511-19.777131 11.778621-27.775642l0 0q19.777131-7.998511 27.775642 11.77862l239.95534 593.313943q7.998511 19.777131-11.77862 27.775642l0 0q-19.777131 7.998511-27.775642-11.77862Z" fill="#00e6f6" p-id="14005" data-spm-anchor-id="a313x.search_index.0.i37.375e3a81B5PMW9" class=""></path><path d="M364.377223 820.513957m7.991607-19.779922l239.74822-593.397667q7.991607-19.779922 27.771529-11.788315l0.026373 0.010655q19.779922 7.991607 11.788315 27.77153l-239.748219 593.397667q-7.991607 19.779922-27.77153 11.788315l-0.026373-0.010656q-19.779922-7.991607-11.788315-27.771529Z" fill="#f8f005" p-id="14006" data-spm-anchor-id="a313x.search_index.0.i35.375e3a81B5PMW9" class=""></path></svg>